<?xml version="1.0" encoding="UTF-8"?>
<svg id="Capa_2" data-name="Capa 2" xmlns="http://www.w3.org/2000/svg" viewBox="0 0 48 48">
  <defs>
    <style>
      .cls-1 {
        fill: #05050a;
      }

      .cls-2 {
        fill: #fafaf5;
      }
    </style>
  </defs>
  <g id="Capa_1-2" data-name="Capa 1">
    <g>
      <rect class="cls-1" width="48" height="48" rx="10.27" ry="10.27"/>
      <g>
        <path class="cls-2" d="M17.78,29.23l2.72,2.72-4.16,4.16c-.97.97-2.51.95-3.46,0l-7.94-7.94c-.95-.95-.95-2.49,0-3.46l12.81-12.81c.46-.46,1.09-.72,1.73-.72s1.27.26,1.73.72l4.16,4.16-7.58,7.58c-1.55,1.55-1.55,4.06,0,5.59Z"/>
        <path class="cls-2" d="M43.78,21.57c0,.64-.26,1.27-.72,1.73l-12.81,12.81c-.95.95-2.51.97-3.46,0l-4.16-4.16-3.78-3.78c-.95-.95-.95-2.49,0-3.46l12.81-12.81c.93-.93,2.55-.93,3.48,0l7.92,7.94c.46.46.72,1.07.72,1.73Z"/>
      </g>
    </g>
  </g>
</svg>