<?xml version="1.0" encoding="UTF-8"?>
<svg id="Capa_2" data-name="Capa 2" xmlns="http://www.w3.org/2000/svg" viewBox="0 0 124.51 80.73">
  <defs>
    <style>
      .cls-1 {
        fill: #05050a;
      }
    </style>
  </defs>
  <g id="Capa_1-2" data-name="Capa 1">
    <g>
      <path class="cls-1" d="M42.67,56.83l8.54,8.54-13.1,13.1c-3.04,3.04-7.91,2.97-10.89,0L2.23,53.48c-2.97-2.97-2.97-7.85,0-10.89L42.55,2.28c1.46-1.46,3.42-2.28,5.44-2.28s3.99.82,5.44,2.28l13.1,13.1-23.86,23.86c-4.87,4.87-4.87,12.78,0,17.59Z"/>
      <path class="cls-1" d="M124.51,32.72c0,2.03-.82,3.99-2.28,5.44l-40.31,40.32c-2.97,2.97-7.91,3.04-10.89,0l-13.1-13.1-11.9-11.9c-2.98-2.97-2.98-7.85,0-10.89L86.34,2.28c2.91-2.91,8.04-2.91,10.95,0l24.94,25c1.46,1.46,2.28,3.35,2.28,5.44Z"/>
    </g>
  </g>
</svg>