<?xml version="1.0" encoding="UTF-8"?>
<svg id="Capa_2" data-name="Capa 2" xmlns="http://www.w3.org/2000/svg" viewBox="0 0 264.16 62.07">
  <defs>
    <style>
      .cls-1 {
        fill: #05050a;
      }
    </style>
  </defs>
  <g id="Capa_1-2" data-name="Capa 1">
    <g>
      <polygon class="cls-1" points="30.75 43.14 30.09 43.14 14.38 1.57 0 1.57 0 60.75 11 60.75 11 31.57 10.33 21.74 11 21.74 26.12 60.75 34.8 60.75 49.84 21.74 50.5 21.74 49.84 31.57 49.84 60.75 60.92 60.75 60.92 1.57 46.45 1.57 30.75 43.14"/>
      <path class="cls-1" d="M78.27,0c-1.93,0-3.58.67-4.96,2.02-1.38,1.35-2.06,2.99-2.06,4.92s.69,3.58,2.06,4.96c1.38,1.38,3.03,2.06,4.96,2.06s3.56-.69,4.92-2.06c1.35-1.38,2.02-3.03,2.02-4.96s-.67-3.57-2.02-4.92c-1.35-1.35-2.99-2.02-4.92-2.02Z"/>
      <rect class="cls-1" x="72.82" y="18.59" width="10.83" height="42.15"/>
      <path class="cls-1" d="M117.78,17.27c-2.7,0-5.21.59-7.52,1.78-2.31,1.19-4.11,2.8-5.37,4.84h-.66v-5.29h-10.17v42.15h10.83v-21.49c0-2.2.4-4.2,1.2-5.99.8-1.79,1.93-3.22,3.39-4.29,1.46-1.08,3.18-1.61,5.17-1.61,2.42,0,4.34.73,5.74,2.19s2.11,3.57,2.11,6.32v24.88h10.83v-26.2c0-5.23-1.3-9.42-3.89-12.56s-6.47-4.71-11.65-4.71Z"/>
      <path class="cls-1" d="M162.49,51.24c-1.88,0-3.22-.48-4.05-1.45s-1.24-2.47-1.24-4.51v-17.44h10.33v-9.26h-10.33V6.69h-10.83v11.9h-7.36v9.26h7.36v19.42c0,4.41,1.24,7.87,3.72,10.37,2.48,2.51,5.89,3.76,10.25,3.76,1.32,0,2.6-.12,3.84-.37s2.46-.59,3.68-1.03v-10.58c-1.16.72-2.13,1.2-2.89,1.45-.77.25-1.6.37-2.48.37Z"/>
      <path class="cls-1" d="M205.13,20.16c-3.09-1.93-6.89-2.89-11.4-2.89-4.19,0-7.91,1.03-11.16,3.1-3.26,2.06-5.82,4.81-7.69,8.22-1.88,3.42-2.81,7.14-2.81,11.16,0,4.3.95,8.13,2.85,11.49s4.52,6.01,7.85,7.93c3.34,1.93,7.12,2.89,11.37,2.89,4.68,0,8.62-1.01,11.82-3.02,3.19-2.01,5.78-4.75,7.77-8.22l-8.76-4.3c-1,1.71-2.37,3.13-4.14,4.26s-3.93,1.69-6.52,1.69c-2.21,0-4.2-.51-5.99-1.53-1.8-1.02-3.22-2.51-4.26-4.46-.66-1.23-1.04-2.69-1.28-4.26h31.53c.05-.28.11-.73.17-1.37.05-.63.08-1.39.08-2.27,0-3.91-.8-7.48-2.39-10.7-1.6-3.22-3.94-5.8-7.03-7.73ZM183.22,34.55c.22-.75.42-1.52.76-2.19.99-1.95,2.35-3.48,4.09-4.59,1.74-1.1,3.65-1.65,5.74-1.65,1.59,0,3.01.26,4.26.78,1.24.52,2.3,1.2,3.18,2.02s1.57,1.74,2.06,2.73.77,1.96.83,2.89h-20.93Z"/>
      <path class="cls-1" d="M253.41,1.57v16.2l.67,5.95h-.67c-.66-1.1-1.59-2.15-2.81-3.14-1.21-.99-2.64-1.79-4.29-2.4-1.65-.61-3.5-.91-5.54-.91-3.85,0-7.32.95-10.41,2.85s-5.52,4.53-7.32,7.89c-1.79,3.36-2.68,7.25-2.68,11.65s.89,8.29,2.68,11.65c1.8,3.36,4.23,5.99,7.32,7.89,3.09,1.9,6.56,2.85,10.41,2.85,2.04,0,3.89-.3,5.54-.91,1.65-.61,3.08-1.39,4.29-2.36,1.22-.96,2.15-1.99,2.81-3.1h.67v5.04h10.08V1.57h-10.75ZM252.46,46.16c-1.08,1.85-2.48,3.3-4.22,4.34s-3.62,1.57-5.66,1.57-3.85-.51-5.58-1.53-3.14-2.47-4.22-4.34c-1.07-1.87-1.61-4.05-1.61-6.53s.54-4.71,1.61-6.53c1.08-1.82,2.48-3.24,4.22-4.26s3.6-1.53,5.58-1.53,3.92.51,5.66,1.53,3.14,2.45,4.22,4.3,1.61,4.01,1.61,6.49-.54,4.64-1.61,6.49Z"/>
    </g>
  </g>
</svg>